<svg xmlns="http://www.w3.org/2000/svg" xmlns:xlink="http://www.w3.org/1999/xlink" width="114.489" height="125.991" viewBox="0 0 114.489 125.991"><defs><style>.a{stroke:rgba(0,0,0,0);stroke-miterlimit:10;fill:url(#a);}.b{opacity:0.25;}</style><linearGradient id="a" x1="0.5" x2="0.5" y2="1" gradientUnits="objectBoundingBox"><stop offset="0" stop-color="#ed8770"/><stop offset="1" stop-color="#d9519d"/></linearGradient></defs><g transform="translate(-705.5 -95.5)"><g transform="translate(706 96)"><path class="a" d="M45.38,122.334,11.809,102.882c.028-.07.06-.144.089-.215,3.826-9.333,4.883-19.513,6.929-29.383q.549,2.13,1.071,4.265c1.834,7.47,3.415,15.033,5.735,22.371,1.976,6.256,6.07,16.753,14.772,13.949,4.559-1.469,6.6-5.518,8.246-9.651A82.525,82.525,0,0,0,52.425,89.88c1.9-9.5,3.117-19.127,5.144-28.609A127.716,127.716,0,0,1,60.785,48.9c.028-.09.061-.177.089-.267.219.815.428,1.634.62,2.453.669,2.846,1.175,5.731,1.607,8.624.046.309.089.617.134.925.1.8.195,1.59.286,2.386.192,1.7.353,3.406.5,5.114A194.908,194.908,0,0,1,64.56,90.5q-.177,5.505-.718,10.989c-.088.892-.188,1.783-.292,2.672-.042.369-.09.735-.135,1.1a.057.057,0,0,0,0,.019c-.238,1.694-.521,3.383-.837,5.063a80.8,80.8,0,0,1-2.285,9.252c-.4,1.272-.853,2.525-1.345,3.761-.112.248-.224.495-.341.742-.132.281-.273.555-.414.833q-.837.051-1.68.051A22.7,22.7,0,0,1,45.38,122.334ZM79.088,90.967c.541-14.532-.35-29.548-3.626-43.752-1.035-4.491-2.43-9.64-5.261-13.359l43.288,46.815L70.2,33.857C65.9,28.2,59.774,26.8,54.018,31.394c-4.429,3.529-6.362,10.573-7.894,15.712A181.276,181.276,0,0,0,41.4,68.791L27.4,53.9c-2.4-4.059-6.257-6.4-11.046-5.469-4.463.872-6.614,5.481-8.173,9.207C6.354,62,5.477,66.76,4.533,71.371,3.284,77.46,2.455,83.6.992,89.635A19.537,19.537,0,0,1,0,82.771V42.223C0,35.147,4.653,26.45,10.778,22.9L45.35,2.661c6.126-3.549,16.119-3.549,22.244,0L102.467,22.9c6.125,3.55,11.021,12.246,11.021,19.323V82.771c0,7.079-4.9,15.774-11.021,19.325l-26.4,15.365C78.105,108.755,78.768,99.595,79.088,90.967ZM33.925,73.683c-1.61-6.57-3.063-13.892-6.548-19.78L41.393,68.791c-.466,2.758-.913,5.518-1.37,8.271-.679,4.1-1.4,8.2-2.3,12.266C36.354,84.139,35.2,78.886,33.925,73.683Z" transform="translate(0 0)"/><path class="b" d="M376.979,340.329c-.143-1.708-.3-3.412-.5-5.114-.091-.8-.184-1.591-.286-2.386-.044-.308-.088-.616-.134-.925-.432-2.893-.938-5.778-1.607-8.624-.192-.82-.4-1.638-.62-2.454-.028.09-.062.177-.09.268a127.72,127.72,0,0,0-3.216,12.374c-2.027,9.481-3.24,19.1-5.144,28.609a82.445,82.445,0,0,1-3.774,14.338c-1.644,4.133-3.687,8.181-8.246,9.651-8.7,2.8-12.8-7.693-14.772-13.949-2.319-7.337-3.9-14.9-5.735-22.37q-.523-2.134-1.072-4.265c-2.046,9.87-3.1,20.05-6.929,29.383-.029.07-.06.145-.089.214l33.571,19.453a23.489,23.489,0,0,0,12.809,2.606c.141-.277.283-.552.414-.833.117-.248.229-.494.341-.742.492-1.236.947-2.49,1.345-3.761a80.883,80.883,0,0,0,2.285-9.252c.316-1.681.6-3.369.837-5.063a.067.067,0,0,1,0-.02c.046-.369.093-.736.136-1.1.1-.889.2-1.78.292-2.672q.538-5.479.718-10.989A194.856,194.856,0,0,0,376.979,340.329Z" transform="translate(-312.961 -272.197)"/><path class="b" d="M431.416,353.2c-.321,8.628-.983,17.787-3.022,26.493l26.4-15.365c6.125-3.551,11.021-12.246,11.021-19.325v-2.1l-43.287-46.816c2.831,3.719,4.226,8.868,5.26,13.359C431.066,323.656,431.957,338.672,431.416,353.2Z" transform="translate(-352.328 -262.237)"/><path class="b" d="M357.382,349.435c1.275,5.2,2.429,10.456,3.8,15.645.9-4.063,1.62-8.171,2.3-12.266.457-2.753.9-5.513,1.37-8.27l-14.016-14.888C354.319,335.543,355.772,342.865,357.382,349.435Z" transform="translate(-323.457 -275.752)"/></g></g></svg>