<svg xmlns="http://www.w3.org/2000/svg" xmlns:xlink="http://www.w3.org/1999/xlink" width="22" height="22" viewBox="0 0 22 22"><defs><style>.a{fill:url(#a);}</style><linearGradient id="a" x1="0.5" x2="0.5" y2="1" gradientUnits="objectBoundingBox"><stop offset="0" stop-color="#ed8770"/><stop offset="1" stop-color="#d9519d"/></linearGradient></defs><g transform="translate(-20 -689)"><g transform="translate(20 689)"><path class="a" d="M11,22A11,11,0,0,1,3.222,3.222,11,11,0,1,1,18.778,18.778,10.929,10.929,0,0,1,11,22Zm.027-20.87a9.9,9.9,0,1,0,9.9,9.9A9.907,9.907,0,0,0,11.027,1.13Z" transform="translate(0 0)"/></g><g transform="translate(27.904 695.269)"><path class="a" d="M4.152,1.357a1,1,0,0,1,1.7,0l3.2,5.113A1,1,0,0,1,8.2,8H1.8A1,1,0,0,1,.956,6.47Z" transform="translate(8.096 -0.269) rotate(90)"/></g></g></svg>