<svg xmlns="http://www.w3.org/2000/svg" width="11" height="13" viewBox="0 0 11 13"><defs><style>.a{fill:none;}.b,.c{stroke:none;}.c{fill:#fff;}</style></defs><g transform="translate(-24 -692)"><g transform="translate(24 692)"><g class="a" transform="translate(11) rotate(90)"><path class="b" d="M5.639,1.457a1,1,0,0,1,1.722,0l4.748,8.034A1,1,0,0,1,11.248,11h-9.5A1,1,0,0,1,.892,9.491Z"/><path class="c" d="M 6.500000476837158 1.965682029724121 L 1.752442359924316 9.999998092651367 C 1.752443313598633 10 1.752444267272949 10.00000095367432 1.752445220947266 10.00000190734863 C 1.752447128295898 10.00000190734863 1.752449035644531 10.00000190734863 1.752450942993164 10.00000190734863 L 11.24755096435547 10.00000190734863 L 6.50001049041748 1.965692520141602 C 6.500008583068848 1.965688705444336 6.500006675720215 1.965685844421387 6.500004768371582 1.965682029724121 C 6.500003337860107 1.965682029724121 6.500001907348633 1.965682029724121 6.500000476837158 1.965682029724121 M 6.499996662139893 0.9656801223754883 C 6.833695411682129 0.9656801223754883 7.16739559173584 1.129437446594238 7.360930442810059 1.456952095031738 L 12.10848045349121 9.49127197265625 C 12.50239086151123 10.15788269042969 12.0218505859375 11.00000190734863 11.24755096435547 11.00000190734863 L 1.752450942993164 11.00000190734863 C 0.9781503677368164 11.00000190734863 0.4976100921630859 10.15788269042969 0.8915205001831055 9.49127197265625 L 5.639070510864258 1.456952095031738 C 5.832600593566895 1.129437446594238 6.166297912597656 0.9656801223754883 6.499996662139893 0.9656801223754883 Z"/></g></g></g></svg>