<svg xmlns="http://www.w3.org/2000/svg" xmlns:xlink="http://www.w3.org/1999/xlink" width="21" height="21" viewBox="0 0 20.71 20.71"><defs><style>.a{fill:url(#a);}</style><linearGradient id="a" x1="0.5" x2="0.5" y2="1" gradientUnits="objectBoundingBox"><stop offset="0" stop-color="#ed8770"/><stop offset="1" stop-color="#d9519d"/></linearGradient></defs><path class="a" d="M20.223,8l-1.592-.346a8.663,8.663,0,0,0-.512-1.235L19,5.045a.619.619,0,0,0-.083-.772l-2.48-2.48a.619.619,0,0,0-.772-.083l-1.371.881a8.663,8.663,0,0,0-1.235-.512L12.713.487a.619.619,0,0,0-.6-.487H8.6A.619.619,0,0,0,8,.487L7.651,2.079a8.663,8.663,0,0,0-1.235.512L5.045,1.71a.619.619,0,0,0-.772.083l-2.48,2.48a.619.619,0,0,0-.083.772l.881,1.371a8.663,8.663,0,0,0-.512,1.235L.487,8A.619.619,0,0,0,0,8.6v3.507a.619.619,0,0,0,.487.6l1.592.346a8.663,8.663,0,0,0,.512,1.235L1.71,15.665a.619.619,0,0,0,.083.772l2.48,2.48A.619.619,0,0,0,5.045,19l1.371-.881a8.663,8.663,0,0,0,1.235.512L8,20.223a.619.619,0,0,0,.6.487h3.507a.619.619,0,0,0,.6-.487l.346-1.592a8.663,8.663,0,0,0,1.235-.512L15.665,19a.619.619,0,0,0,.772-.083l2.48-2.48A.619.619,0,0,0,19,15.665l-.881-1.371a8.663,8.663,0,0,0,.512-1.235l1.592-.346a.619.619,0,0,0,.487-.6V8.6A.619.619,0,0,0,20.223,8Zm-6.155,2.358a3.713,3.713,0,1,1-3.713-3.713A3.717,3.717,0,0,1,14.068,10.355Zm0,0" transform="translate(0 0)"/></svg>