<svg xmlns="http://www.w3.org/2000/svg" width="9.118" height="9.947" viewBox="0 0 9.118 9.947"><defs><style>.a{fill:#fff;}</style></defs><g transform="translate(0 0)"><path class="a" d="M317.362,17.347A1.347,1.347,0,1,1,316.015,16,1.347,1.347,0,0,1,317.362,17.347Zm0,0" transform="translate(-308.555 -15.689)"/><path class="a" d="M300.326,3.316a1.658,1.658,0,1,1,1.658-1.658A1.66,1.66,0,0,1,300.326,3.316Zm0-2.694a1.036,1.036,0,1,0,1.036,1.036A1.037,1.037,0,0,0,300.326.622Zm0,0" transform="translate(-292.865)"/><path class="a" d="M317.362,358.679a1.347,1.347,0,1,1-1.347-1.347A1.347,1.347,0,0,1,317.362,358.679Zm0,0" transform="translate(-308.555 -350.39)"/><path class="a" d="M300.326,344.648a1.658,1.658,0,1,1,1.658-1.658A1.66,1.66,0,0,1,300.326,344.648Zm0-2.694a1.036,1.036,0,1,0,1.036,1.036A1.037,1.037,0,0,0,300.326,341.954Zm0,0" transform="translate(-292.865 -334.701)"/><path class="a" d="M18.694,188.015a1.347,1.347,0,1,1-1.347-1.347A1.347,1.347,0,0,1,18.694,188.015Zm0,0" transform="translate(-15.689 -183.041)"/><path class="a" d="M1.658,173.984a1.658,1.658,0,1,1,1.658-1.658,1.66,1.66,0,0,1-1.658,1.658Zm0-2.694a1.036,1.036,0,1,0,1.036,1.036,1.037,1.037,0,0,0-1.036-1.036Zm0,0" transform="translate(0 -167.352)"/><path class="a" d="M114.763,93.236a.415.415,0,0,1-.206-.775l3.846-2.193a.415.415,0,1,1,.41.72l-3.846,2.193a.412.412,0,0,1-.2.054Zm0,0" transform="translate(-112.127 -88.462)"/><path class="a" d="M118.631,269.241a.412.412,0,0,1-.2-.054l-3.846-2.193a.415.415,0,0,1,.41-.72l3.846,2.193a.415.415,0,0,1-.206.775Zm0,0" transform="translate(-112.149 -261.046)"/></g></svg>